<?xml version="1.0" encoding="UTF-8" standalone="no"?>
<!-- Created with Inkscape (http://www.inkscape.org/) -->

<svg
   xmlns:dc="http://purl.org/dc/elements/1.1/"
   xmlns:cc="http://creativecommons.org/ns#"
   xmlns:rdf="http://www.w3.org/1999/02/22-rdf-syntax-ns#"
   xmlns:svg="http://www.w3.org/2000/svg"
   xmlns="http://www.w3.org/2000/svg"
   xmlns:sodipodi="http://sodipodi.sourceforge.net/DTD/sodipodi-0.dtd"
   xmlns:inkscape="http://www.inkscape.org/namespaces/inkscape"
   width="32px"
   height="32px"
   id="svg2985"
   version="1.1"
   inkscape:version="0.48.4 r9939"
   sodipodi:docname="icon.svg"
   inkscape:export-filename="C:\Data\hobby\projects\cesfur\artshow2.1\startup\res\wixUIBannerBmp.png"
   inkscape:export-xdpi="135"
   inkscape:export-ydpi="135">
  <defs
     id="defs2987" />
  <sodipodi:namedview
     id="base"
     pagecolor="#ffffff"
     bordercolor="#666666"
     borderopacity="1.0"
     inkscape:pageopacity="0.0"
     inkscape:pageshadow="2"
     inkscape:zoom="0.98975521"
     inkscape:cx="155.01804"
     inkscape:cy="-163.58859"
     inkscape:current-layer="layer1"
     showgrid="true"
     inkscape:grid-bbox="true"
     inkscape:document-units="px"
     inkscape:window-width="1280"
     inkscape:window-height="1002"
     inkscape:window-x="1272"
     inkscape:window-y="18"
     inkscape:window-maximized="1" />
  <metadata
     id="metadata2990">
    <rdf:RDF>
      <cc:Work
         rdf:about="">
        <dc:format>image/svg+xml</dc:format>
        <dc:type
           rdf:resource="http://purl.org/dc/dcmitype/StillImage" />
        <dc:title></dc:title>
      </cc:Work>
    </rdf:RDF>
  </metadata>
  <g
     id="layer1"
     inkscape:label="Layer 1"
     inkscape:groupmode="layer">
    <rect
       style="color:#000000;fill:#abc837;fill-opacity:1;fill-rule:nonzero;stroke:#000000;stroke-width:0.50000000000000000;stroke-miterlimit:4;stroke-dasharray:none;marker:none;visibility:visible;display:inline;overflow:visible;enable-background:accumulate"
       id="rect2993"
       width="29.047586"
       height="29.047586"
       x="1.4762069"
       y="1.4762069"
       ry="2.7784648"
       rx="2.7784648" />
    <g
       id="g3025">
      <rect
         transform="matrix(0.99840129,-0.05652311,0.05495519,0.99848882,0,0)"
         ry="0"
         rx="0"
         y="12.084479"
         x="4.4398031"
         height="14.884602"
         width="21.34376"
         id="rect3763"
         style="color:#000000;fill:#ffffff;fill-opacity:1;fill-rule:nonzero;stroke:#000000;stroke-width:1.50000095;stroke-linecap:round;stroke-linejoin:round;stroke-miterlimit:4;stroke-opacity:1;stroke-dasharray:none;stroke-dashoffset:0;marker:none;visibility:visible;display:inline;overflow:visible;enable-background:accumulate" />
      <path
         transform="matrix(1.5,0,0,1.5,53.509275,11.721501)"
         d="m -23.995833,-4.246336 a 1.0103508,1.0103508 0 1 1 -2.020701,0 1.0103508,1.0103508 0 1 1 2.020701,0 z"
         sodipodi:ry="1.0103508"
         sodipodi:rx="1.0103508"
         sodipodi:cy="-4.246336"
         sodipodi:cx="-25.006184"
         id="path3765"
         style="color:#000000;fill:#1a1a1a;fill-opacity:1;fill-rule:nonzero;stroke:none;stroke-width:1.5;marker:none;visibility:visible;display:inline;overflow:visible;enable-background:accumulate"
         sodipodi:type="arc" />
      <path
         sodipodi:nodetypes="ccc"
         inkscape:connector-curvature="0"
         id="path3767"
         d="M 9.9772147,11.414102 15.786732,5.2257031 21.975131,10.782632"
         style="fill:none;stroke:#000000;stroke-width:1px;stroke-linecap:butt;stroke-linejoin:round;stroke-opacity:1" />
      <g
         transform="matrix(0.47482833,0,0,0.51855772,30.756177,14.421231)"
         id="g3792">
        <path
           sodipodi:nodetypes="zzzzz"
           inkscape:connector-curvature="0"
           id="path3773"
           d="m -31.706606,-0.84790446 c -0.566978,-1.14233434 -1.844687,-0.99552344 -2.652171,0.1060226 -0.807484,1.10154631 -1.811163,3.83609356 -1.136644,5.19509886 0.674519,1.3590053 2.778274,1.1002423 3.662521,-0.1060224 0.884247,-1.2062647 0.693272,-4.05276423 0.126294,-5.19509906 z"
           style="fill:#000000;stroke:none" />
        <path
           style="fill:#000000;stroke:none"
           d="m -30.227343,-0.99586687 c 0.566978,-1.14233433 1.844687,-0.99552343 2.652171,0.10602256 0.807484,1.10154631 1.811163,3.83609361 1.136644,5.19509891 -0.674519,1.3590053 -2.778274,1.1002423 -3.662521,-0.1060224 -0.884247,-1.2062647 -0.693272,-4.05276428 -0.126294,-5.19509907 z"
           id="path3777"
           inkscape:connector-curvature="0"
           sodipodi:nodetypes="zzzzz" />
        <path
           sodipodi:nodetypes="zzzzz"
           inkscape:connector-curvature="0"
           id="path3779"
           d="m -25.531262,3.3614966 c 0.566978,-1.1423343 1.844687,-0.9955234 2.652171,0.1060225 0.807484,1.1015464 1.811163,3.8360937 1.136644,5.195099 -0.674519,1.3590049 -2.778274,1.1002423 -3.662521,-0.1060224 -0.884247,-1.2062647 -0.693272,-4.0527643 -0.126294,-5.1950991 z"
           style="fill:#000000;stroke:none" />
        <path
           style="fill:#000000;stroke:none"
           d="m -36.022491,4.6117419 c -0.566978,-1.1423343 -1.844687,-0.9955234 -2.652171,0.1060226 -0.807484,1.1015463 -1.811163,3.8360936 -1.136644,5.1950989 0.674519,1.3590056 2.778274,1.1002426 3.662521,-0.1060224 0.884247,-1.2062647 0.693272,-4.0527643 0.126294,-5.1950991 z"
           id="path3781"
           inkscape:connector-curvature="0"
           sodipodi:nodetypes="zzzzz" />
        <path
           inkscape:connector-curvature="0"
           style="color:#000000;fill:#000000;fill-opacity:1;fill-rule:nonzero;stroke:none;stroke-width:1.5;marker:none;visibility:visible;display:inline;overflow:visible;enable-background:accumulate"
           d="m -30.84375,6.15625 c -2.145455,0 -3.90625,2.0282183 -3.90625,4.53125 0,0.118526 0.02359,0.227515 0.03125,0.34375 -1.627055,0.263168 -2.875,1.601037 -2.875,3.25 0,1.837201 1.538649,3.34375 3.4375,3.34375 1.565812,0 2.865918,-1.02085 3.28125,-2.40625 0.01056,9.8e-5 0.02068,0 0.03125,0 0.316543,0 0.611674,-0.0729 0.90625,-0.15625 0.494174,1.385079 1.721056,2.375 3.1875,2.375 1.898851,0 3.4375,-1.653016 3.4375,-3.6875 0,-2.034484 -1.538649,-3.6875 -3.4375,-3.6875 -0.09677,0 -0.186502,0.02285 -0.28125,0.03125 -0.245998,-2.2266572 -1.836982,-3.9375 -3.8125,-3.9375 z"
           id="path3783" />
      </g>
    </g>
    <rect
       style="color:#000000;fill:#abc837;fill-opacity:1;fill-rule:nonzero;stroke:none;stroke-width:1;marker:none;visibility:visible;display:inline;overflow:visible;enable-background:accumulate"
       id="rect2992"
       width="493"
       height="58"
       x="-109.41217"
       y="48.538601"
       inkscape:export-filename="C:\Data\hobby\projects\cesfur\artshow2.1\startup\res\wixUIBannerBmp.png"
       inkscape:export-xdpi="89.999992"
       inkscape:export-ydpi="89.999992" />
    <g
       id="g3036"
       transform="matrix(1.7709037,0,0,1.7709037,312.34226,49.855971)"
       inkscape:export-filename="C:\Data\hobby\projects\cesfur\artshow2.1\startup\res\wixUIBannerBmp.png"
       inkscape:export-xdpi="89.999992"
       inkscape:export-ydpi="89.999992">
      <rect
         style="color:#000000;fill:#ffffff;fill-opacity:1;fill-rule:nonzero;stroke:#000000;stroke-width:1.50000095;stroke-linecap:round;stroke-linejoin:round;stroke-miterlimit:4;stroke-opacity:1;stroke-dasharray:none;stroke-dashoffset:0;marker:none;visibility:visible;display:inline;overflow:visible;enable-background:accumulate"
         id="rect3038"
         width="21.34376"
         height="14.884602"
         x="4.4398031"
         y="12.084479"
         rx="0"
         ry="0"
         transform="matrix(0.99840129,-0.05652311,0.05495519,0.99848882,0,0)" />
      <path
         sodipodi:type="arc"
         style="color:#000000;fill:#1a1a1a;fill-opacity:1;fill-rule:nonzero;stroke:none;stroke-width:1.5;marker:none;visibility:visible;display:inline;overflow:visible;enable-background:accumulate"
         id="path3040"
         sodipodi:cx="-25.006184"
         sodipodi:cy="-4.246336"
         sodipodi:rx="1.0103508"
         sodipodi:ry="1.0103508"
         d="m -23.995833,-4.246336 c 0,0.5580014 -0.452349,1.0103508 -1.010351,1.0103508 -0.558001,0 -1.01035,-0.4523494 -1.01035,-1.0103508 0,-0.5580013 0.452349,-1.0103508 1.01035,-1.0103508 0.558002,0 1.010351,0.4523495 1.010351,1.0103508 z"
         transform="matrix(1.5,0,0,1.5,53.509275,11.721501)" />
      <path
         style="fill:none;stroke:#000000;stroke-width:1px;stroke-linecap:butt;stroke-linejoin:round;stroke-opacity:1"
         d="M 9.9772147,11.414102 15.786732,5.2257031 21.975131,10.782632"
         id="path3042"
         inkscape:connector-curvature="0"
         sodipodi:nodetypes="ccc" />
      <g
         id="g3044"
         transform="matrix(0.47482833,0,0,0.51855772,30.756177,14.421231)">
        <path
           style="fill:#000000;stroke:none"
           d="m -31.706606,-0.84790446 c -0.566978,-1.14233434 -1.844687,-0.99552344 -2.652171,0.1060226 -0.807484,1.10154631 -1.811163,3.83609356 -1.136644,5.19509886 0.674519,1.3590053 2.778274,1.1002423 3.662521,-0.1060224 0.884247,-1.2062647 0.693272,-4.05276423 0.126294,-5.19509906 z"
           id="path3046"
           inkscape:connector-curvature="0"
           sodipodi:nodetypes="zzzzz" />
        <path
           sodipodi:nodetypes="zzzzz"
           inkscape:connector-curvature="0"
           id="path3048"
           d="m -30.227343,-0.99586687 c 0.566978,-1.14233433 1.844687,-0.99552343 2.652171,0.10602256 0.807484,1.10154631 1.811163,3.83609361 1.136644,5.19509891 -0.674519,1.3590053 -2.778274,1.1002423 -3.662521,-0.1060224 -0.884247,-1.2062647 -0.693272,-4.05276428 -0.126294,-5.19509907 z"
           style="fill:#000000;stroke:none" />
        <path
           style="fill:#000000;stroke:none"
           d="m -25.531262,3.3614966 c 0.566978,-1.1423343 1.844687,-0.9955234 2.652171,0.1060225 0.807484,1.1015464 1.811163,3.8360937 1.136644,5.195099 -0.674519,1.3590049 -2.778274,1.1002423 -3.662521,-0.1060224 -0.884247,-1.2062647 -0.693272,-4.0527643 -0.126294,-5.1950991 z"
           id="path3050"
           inkscape:connector-curvature="0"
           sodipodi:nodetypes="zzzzz" />
        <path
           sodipodi:nodetypes="zzzzz"
           inkscape:connector-curvature="0"
           id="path3052"
           d="m -36.022491,4.6117419 c -0.566978,-1.1423343 -1.844687,-0.9955234 -2.652171,0.1060226 -0.807484,1.1015463 -1.811163,3.8360936 -1.136644,5.1950989 0.674519,1.3590056 2.778274,1.1002426 3.662521,-0.1060224 0.884247,-1.2062647 0.693272,-4.0527643 0.126294,-5.1950991 z"
           style="fill:#000000;stroke:none" />
        <path
           id="path3054"
           d="m -30.84375,6.15625 c -2.145455,0 -3.90625,2.0282183 -3.90625,4.53125 0,0.118526 0.02359,0.227515 0.03125,0.34375 -1.627055,0.263168 -2.875,1.601037 -2.875,3.25 0,1.837201 1.538649,3.34375 3.4375,3.34375 1.565812,0 2.865918,-1.02085 3.28125,-2.40625 0.01056,9.8e-5 0.02068,0 0.03125,0 0.316543,0 0.611674,-0.0729 0.90625,-0.15625 0.494174,1.385079 1.721056,2.375 3.1875,2.375 1.898851,0 3.4375,-1.653016 3.4375,-3.6875 0,-2.034484 -1.538649,-3.6875 -3.4375,-3.6875 -0.09677,0 -0.186502,0.02285 -0.28125,0.03125 -0.245998,-2.2266572 -1.836982,-3.9375 -3.8125,-3.9375 z"
           style="color:#000000;fill:#000000;fill-opacity:1;fill-rule:nonzero;stroke:none;stroke-width:1.5;marker:none;visibility:visible;display:inline;overflow:visible;enable-background:accumulate"
           inkscape:connector-curvature="0" />
      </g>
    </g>
    <rect
       inkscape:export-ydpi="89.999992"
       inkscape:export-xdpi="89.999992"
       inkscape:export-filename="C:\Data\hobby\projects\cesfur\artshow2.1\startup\res\wixUIDialog.png"
       y="193.41133"
       x="-106.55447"
       height="312"
       width="493"
       id="rect3056"
       style="color:#000000;fill:#abc837;fill-opacity:1;fill-rule:nonzero;stroke:none;stroke-width:1;marker:none;visibility:visible;display:inline;overflow:visible;enable-background:accumulate" />
    <rect
       style="color:#000000;fill:#ffffff;fill-opacity:1;fill-rule:nonzero;stroke:none;stroke-width:1;marker:none;visibility:visible;display:inline;overflow:visible;enable-background:accumulate"
       id="rect3058"
       width="336"
       height="312"
       x="50.445534"
       y="193.41133"
       inkscape:export-filename="C:\Data\hobby\projects\cesfur\artshow2.1\startup\res\wixUIDialog.png"
       inkscape:export-xdpi="89.999992"
       inkscape:export-ydpi="89.999992" />
    <g
       inkscape:export-ydpi="89.999992"
       inkscape:export-xdpi="89.999992"
       inkscape:export-filename="C:\Data\hobby\projects\cesfur\artshow2.1\startup\res\wixUIDialog.png"
       transform="matrix(4.0004215,0,0,4.0004215,-91.380907,205.98967)"
       id="g3080">
      <rect
         transform="matrix(0.99840129,-0.05652311,0.05495519,0.99848882,0,0)"
         ry="0"
         rx="0"
         y="12.084479"
         x="4.4398031"
         height="14.884602"
         width="21.34376"
         id="rect3082"
         style="color:#000000;fill:#ffffff;fill-opacity:1;fill-rule:nonzero;stroke:#000000;stroke-width:1.50000095;stroke-linecap:round;stroke-linejoin:round;stroke-miterlimit:4;stroke-opacity:1;stroke-dasharray:none;stroke-dashoffset:0;marker:none;visibility:visible;display:inline;overflow:visible;enable-background:accumulate" />
      <path
         transform="matrix(1.5,0,0,1.5,53.509275,11.721501)"
         d="m -23.995833,-4.246336 c 0,0.5580014 -0.452349,1.0103508 -1.010351,1.0103508 -0.558001,0 -1.01035,-0.4523494 -1.01035,-1.0103508 0,-0.5580013 0.452349,-1.0103508 1.01035,-1.0103508 0.558002,0 1.010351,0.4523495 1.010351,1.0103508 z"
         sodipodi:ry="1.0103508"
         sodipodi:rx="1.0103508"
         sodipodi:cy="-4.246336"
         sodipodi:cx="-25.006184"
         id="path3084"
         style="color:#000000;fill:#1a1a1a;fill-opacity:1;fill-rule:nonzero;stroke:none;stroke-width:1.5;marker:none;visibility:visible;display:inline;overflow:visible;enable-background:accumulate"
         sodipodi:type="arc" />
      <path
         sodipodi:nodetypes="ccc"
         inkscape:connector-curvature="0"
         id="path3086"
         d="M 9.9772147,11.414102 15.786732,5.2257031 21.975131,10.782632"
         style="fill:none;stroke:#000000;stroke-width:1px;stroke-linecap:butt;stroke-linejoin:round;stroke-opacity:1" />
      <g
         transform="matrix(0.47482833,0,0,0.51855772,30.756177,14.421231)"
         id="g3088">
        <path
           sodipodi:nodetypes="zzzzz"
           inkscape:connector-curvature="0"
           id="path3090"
           d="m -31.706606,-0.84790446 c -0.566978,-1.14233434 -1.844687,-0.99552344 -2.652171,0.1060226 -0.807484,1.10154631 -1.811163,3.83609356 -1.136644,5.19509886 0.674519,1.3590053 2.778274,1.1002423 3.662521,-0.1060224 0.884247,-1.2062647 0.693272,-4.05276423 0.126294,-5.19509906 z"
           style="fill:#000000;stroke:none" />
        <path
           style="fill:#000000;stroke:none"
           d="m -30.227343,-0.99586687 c 0.566978,-1.14233433 1.844687,-0.99552343 2.652171,0.10602256 0.807484,1.10154631 1.811163,3.83609361 1.136644,5.19509891 -0.674519,1.3590053 -2.778274,1.1002423 -3.662521,-0.1060224 -0.884247,-1.2062647 -0.693272,-4.05276428 -0.126294,-5.19509907 z"
           id="path3092"
           inkscape:connector-curvature="0"
           sodipodi:nodetypes="zzzzz" />
        <path
           sodipodi:nodetypes="zzzzz"
           inkscape:connector-curvature="0"
           id="path3094"
           d="m -25.531262,3.3614966 c 0.566978,-1.1423343 1.844687,-0.9955234 2.652171,0.1060225 0.807484,1.1015464 1.811163,3.8360937 1.136644,5.195099 -0.674519,1.3590049 -2.778274,1.1002423 -3.662521,-0.1060224 -0.884247,-1.2062647 -0.693272,-4.0527643 -0.126294,-5.1950991 z"
           style="fill:#000000;stroke:none" />
        <path
           style="fill:#000000;stroke:none"
           d="m -36.022491,4.6117419 c -0.566978,-1.1423343 -1.844687,-0.9955234 -2.652171,0.1060226 -0.807484,1.1015463 -1.811163,3.8360936 -1.136644,5.1950989 0.674519,1.3590056 2.778274,1.1002426 3.662521,-0.1060224 0.884247,-1.2062647 0.693272,-4.0527643 0.126294,-5.1950991 z"
           id="path3096"
           inkscape:connector-curvature="0"
           sodipodi:nodetypes="zzzzz" />
        <path
           inkscape:connector-curvature="0"
           style="color:#000000;fill:#000000;fill-opacity:1;fill-rule:nonzero;stroke:none;stroke-width:1.5;marker:none;visibility:visible;display:inline;overflow:visible;enable-background:accumulate"
           d="m -30.84375,6.15625 c -2.145455,0 -3.90625,2.0282183 -3.90625,4.53125 0,0.118526 0.02359,0.227515 0.03125,0.34375 -1.627055,0.263168 -2.875,1.601037 -2.875,3.25 0,1.837201 1.538649,3.34375 3.4375,3.34375 1.565812,0 2.865918,-1.02085 3.28125,-2.40625 0.01056,9.8e-5 0.02068,0 0.03125,0 0.316543,0 0.611674,-0.0729 0.90625,-0.15625 0.494174,1.385079 1.721056,2.375 3.1875,2.375 1.898851,0 3.4375,-1.653016 3.4375,-3.6875 0,-2.034484 -1.538649,-3.6875 -3.4375,-3.6875 -0.09677,0 -0.186502,0.02285 -0.28125,0.03125 -0.245998,-2.2266572 -1.836982,-3.9375 -3.8125,-3.9375 z"
           id="path3098" />
      </g>
    </g>
  </g>
</svg>